<svg width="527" height="113" viewBox="0 0 527 113" fill="none" xmlns="http://www.w3.org/2000/svg">
<path d="M258.042 75.6C250.762 75.6 245.282 73.7 241.602 69.9C237.962 66.06 236.142 60.76 236.142 54C236.142 47.24 237.962 41.96 241.602 38.16C245.282 34.32 250.762 32.4 258.042 32.4C265.322 32.4 270.802 34.32 274.482 38.16C278.162 41.96 280.002 47.24 280.002 54C280.002 60.76 278.162 66.06 274.482 69.9C270.842 73.7 265.362 75.6 258.042 75.6ZM257.982 72.18C262.102 72.18 265.242 70.58 267.402 67.38C269.602 64.18 270.702 59.72 270.702 54C270.702 48.28 269.602 43.82 267.402 40.62C265.242 37.38 262.102 35.76 257.982 35.76C253.942 35.76 250.842 37.38 248.682 40.62C246.522 43.82 245.442 48.28 245.442 54C245.442 59.72 246.522 64.18 248.682 67.38C250.842 70.58 253.942 72.18 257.982 72.18ZM329.975 46.8V49.02H329.135C328.455 49.02 327.775 49.18 327.095 49.5C326.455 49.82 326.015 50.32 325.775 51L318.395 75H311.615L306.275 53.94L299.975 75H293.075L286.475 51.96C286.155 50.88 285.815 50.12 285.455 49.68C285.135 49.24 284.555 49.02 283.715 49.02H282.695V46.8H297.395V49.02H296.315C294.715 49.02 293.915 49.56 293.915 50.64C293.915 50.88 293.935 51.08 293.975 51.24L298.355 68.04L304.475 46.8H310.655L316.715 68.52L321.275 51.54C321.355 51.14 321.395 50.88 321.395 50.76C321.395 50.16 321.175 49.72 320.735 49.44C320.295 49.16 319.795 49.02 319.235 49.02H318.095V46.8H329.975ZM332.103 72.84H333.603C335.763 72.84 336.843 72.12 336.843 70.68V38.7C336.843 37.54 336.283 36.96 335.163 36.96C334.923 36.96 334.443 37.08 333.723 37.32L333.243 35.4L343.743 31.98H345.663V70.62C345.663 71.34 345.943 71.9 346.503 72.3C347.063 72.66 347.863 72.84 348.903 72.84H350.223V75H332.103V72.84ZM386.369 75.6C383.289 75.6 380.809 75.3 378.929 74.7C377.049 74.06 375.349 73.2 373.829 72.12C373.509 71.88 373.229 71.76 372.989 71.76C372.869 71.76 372.769 71.84 372.689 72C372.609 72.16 372.569 72.34 372.569 72.54V75.18H369.509V62.88H372.149C372.389 64.92 373.109 66.66 374.309 68.1C375.549 69.5 377.029 70.54 378.749 71.22C380.469 71.9 382.249 72.24 384.089 72.24C386.809 72.24 389.029 71.64 390.749 70.44C392.469 69.24 393.329 67.42 393.329 64.98C393.329 63.46 392.869 62.16 391.949 61.08C391.069 60 389.949 59.12 388.589 58.44C387.229 57.76 385.389 56.98 383.069 56.1C380.229 54.98 377.949 53.96 376.229 53.04C374.549 52.12 373.109 50.86 371.909 49.26C370.709 47.62 370.109 45.58 370.109 43.14C370.109 39.62 371.469 36.96 374.189 35.16C376.949 33.32 380.669 32.4 385.349 32.4C387.989 32.4 390.169 32.68 391.889 33.24C393.649 33.76 395.209 34.48 396.569 35.4C396.649 35.44 396.789 35.54 396.989 35.7C397.189 35.82 397.349 35.88 397.469 35.88C397.709 35.88 397.829 35.68 397.829 35.28V32.7H400.949V45H398.309C397.949 41.96 396.749 39.68 394.709 38.16C392.709 36.6 390.309 35.82 387.509 35.82C385.229 35.82 383.309 36.34 381.749 37.38C380.229 38.42 379.469 39.88 379.469 41.76C379.469 43.12 379.889 44.26 380.729 45.18C381.569 46.1 382.589 46.86 383.789 47.46C385.029 48.02 386.769 48.72 389.009 49.56C391.889 50.6 394.249 51.6 396.089 52.56C397.929 53.48 399.489 54.84 400.769 56.64C402.049 58.4 402.689 60.66 402.689 63.42C402.689 67.5 401.169 70.56 398.129 72.6C395.129 74.6 391.209 75.6 386.369 75.6ZM414.563 41.58C413.203 41.58 412.103 41.18 411.263 40.38C410.423 39.54 410.003 38.46 410.003 37.14C410.003 35.82 410.423 34.76 411.263 33.96C412.103 33.12 413.203 32.7 414.563 32.7C415.923 32.7 417.023 33.12 417.863 33.96C418.703 34.8 419.123 35.86 419.123 37.14C419.123 38.42 418.703 39.48 417.863 40.32C417.023 41.16 415.923 41.58 414.563 41.58ZM406.043 72.84H407.603C408.643 72.84 409.443 72.66 410.003 72.3C410.563 71.94 410.843 71.4 410.843 70.68V53.1C410.843 52.46 410.663 52 410.303 51.72C409.983 51.44 409.583 51.3 409.103 51.3C408.983 51.3 408.783 51.34 408.503 51.42C408.263 51.5 407.983 51.58 407.663 51.66L407.183 49.74L417.683 46.38H419.603V70.68C419.603 71.4 419.883 71.94 420.443 72.3C421.003 72.66 421.803 72.84 422.843 72.84H424.403V75H406.043V72.84ZM456.371 46.2C457.771 46.2 458.931 46.52 459.851 47.16C460.771 47.76 461.231 48.52 461.231 49.44C461.231 50.32 460.991 51 460.511 51.48C460.031 51.96 459.351 52.2 458.471 52.2C457.911 52.2 457.511 52.1 457.271 51.9C457.031 51.7 456.751 51.38 456.431 50.94C456.191 50.5 455.911 50.16 455.591 49.92C455.311 49.68 454.851 49.56 454.211 49.56C453.771 49.56 453.131 49.72 452.291 50.04C453.651 51.64 454.331 53.58 454.331 55.86C454.331 58.94 453.151 61.3 450.791 62.94C448.431 64.54 445.071 65.34 440.711 65.34C438.231 65.34 435.991 65.06 433.991 64.5C433.111 65.22 432.671 65.96 432.671 66.72C432.671 67.32 432.931 67.82 433.451 68.22C434.011 68.58 434.771 68.76 435.731 68.76H446.771C449.571 68.76 451.851 69.38 453.611 70.62C455.411 71.82 456.311 73.58 456.311 75.9C456.311 78.82 454.931 81.12 452.171 82.8C449.411 84.48 445.471 85.32 440.351 85.32C435.991 85.32 432.631 84.7 430.271 83.46C427.951 82.22 426.791 80.42 426.791 78.06C426.791 75.74 428.291 74.1 431.291 73.14C428.811 72.34 427.571 70.8 427.571 68.52C427.571 66.72 428.831 65 431.351 63.36C428.511 61.68 427.091 59.18 427.091 55.86C427.091 52.78 428.271 50.4 430.631 48.72C433.031 47.04 436.391 46.2 440.711 46.2C444.711 46.2 447.871 46.9 450.191 48.3C451.991 46.9 454.051 46.2 456.371 46.2ZM440.711 62.34C442.391 62.34 443.631 61.74 444.431 60.54C445.231 59.34 445.631 57.78 445.631 55.86C445.631 53.9 445.231 52.32 444.431 51.12C443.631 49.92 442.391 49.32 440.711 49.32C439.031 49.32 437.791 49.92 436.991 51.12C436.191 52.32 435.791 53.9 435.791 55.86C435.791 57.78 436.191 59.34 436.991 60.54C437.791 61.74 439.031 62.34 440.711 62.34ZM435.371 74.4C434.491 74.76 433.851 75.3 433.451 76.02C433.051 76.74 432.851 77.42 432.851 78.06C432.851 79.46 433.531 80.54 434.891 81.3C436.291 82.06 438.171 82.44 440.531 82.44C443.051 82.44 445.011 82.02 446.411 81.18C447.851 80.34 448.571 79.14 448.571 77.58C448.571 76.46 448.151 75.64 447.311 75.12C446.471 74.64 445.051 74.4 443.051 74.4H435.371ZM499.309 72.84V75H481.549V72.84H482.689C483.649 72.84 484.389 72.66 484.909 72.3C485.469 71.94 485.749 71.4 485.749 70.68V55.32C485.749 51.52 484.009 49.62 480.529 49.62C479.449 49.62 478.349 49.94 477.229 50.58C476.149 51.22 475.229 52.24 474.469 53.64C473.749 55 473.389 56.72 473.389 58.8V70.68C473.389 71.4 473.649 71.94 474.169 72.3C474.729 72.66 475.489 72.84 476.449 72.84H477.529V75H459.829V72.84H461.329C462.369 72.84 463.169 72.66 463.729 72.3C464.289 71.94 464.569 71.4 464.569 70.68V38.7C464.569 37.54 464.009 36.96 462.889 36.96C462.649 36.96 462.169 37.08 461.449 37.32L460.909 35.4L471.469 31.98H473.389V51C474.309 49.56 475.709 48.4 477.589 47.52C479.469 46.64 481.449 46.2 483.529 46.2C487.169 46.2 489.909 46.96 491.749 48.48C493.629 49.96 494.569 51.98 494.569 54.54V70.68C494.569 71.4 494.849 71.94 495.409 72.3C495.969 72.66 496.769 72.84 497.809 72.84H499.309ZM525.435 68.46C525.235 70.94 524.295 72.76 522.615 73.92C520.975 75.04 518.775 75.6 516.015 75.6C512.535 75.6 509.815 74.96 507.855 73.68C505.895 72.4 504.915 70.22 504.915 67.14V49.98H500.775V46.8H504.915V41.52L511.875 38.64H513.735V46.8H522.075V49.98H513.735V67.08C513.735 70.84 515.195 72.72 518.115 72.72C519.355 72.72 520.435 72.38 521.355 71.7C522.275 71.02 522.815 69.94 522.975 68.46H525.435Z" fill="white"/>
<path d="M20.7506 1.02836C5.6839 4.62836 -3.9161 22.6284 1.55056 37.1617C3.6839 42.6284 10.0839 49.295 15.8172 51.8284C21.4172 54.495 31.8172 55.1617 35.0172 53.1617C38.0839 51.1617 30.2172 42.6284 25.4172 42.495C19.5506 42.3617 12.4839 34.6284 12.4839 28.3617C12.4839 18.895 17.9506 13.1617 27.0172 13.0284C31.8172 13.0284 33.5506 13.8284 37.2839 17.5617C39.8172 20.095 41.8172 23.295 41.8172 24.7617C41.8172 27.295 50.3506 35.695 52.7506 35.695C54.2172 35.695 54.0839 21.8284 52.4839 17.8284C50.0839 11.1617 41.8172 3.82836 34.7506 1.69503C27.4172 -0.438304 27.1506 -0.438305 20.7506 1.02836Z" fill="white"/>
<path d="M149.484 0.895023C134.951 4.49502 125.084 18.895 128.284 32.095L129.484 37.0284L134.284 33.1617C137.084 30.7617 139.617 27.1617 140.551 23.8284C142.684 16.7617 147.617 13.0284 154.951 13.0284C165.751 13.0284 172.817 23.295 168.684 33.1617C166.951 37.4284 160.551 42.3617 156.551 42.3617C154.017 42.3617 145.884 51.5617 146.951 53.295C147.351 53.8284 150.684 54.3617 154.417 54.3617C174.551 54.3617 187.751 34.2284 179.617 16.3617C174.551 5.02836 160.951 -1.90498 149.484 0.895023Z" fill="white"/>
<path d="M19.8793 22.7222C18.9682 23.6254 18.5777 24.9803 18.9682 25.7706C19.2285 26.5609 36.8006 45.3027 36.8006 45.3027C36.8006 45.3027 45.364 56.3673 48.8407 59.698C52.3174 63.0287 55.8174 66.0287 55.8174 66.0287C55.8174 66.0287 61.0712 68.0342 62.8174 68.5287C63.6863 68.7748 66.8174 69.7787 69.8174 70.5287C72.8174 71.2787 73.3174 71.0287 76.3174 72.5287C79.3174 74.0287 94.4984 85.5909 88.3155 89.6235C85.8423 92.7255 90.1703 114.75 92.9527 111.958C96.6624 108.546 99.7539 91.1745 96.9715 89.6235C91.3976 85.9881 102.317 76.0287 107.317 73.5287C112.317 71.0287 117.177 68.589 117.177 68.589C117.177 68.589 127.465 63.7946 128.891 62.6617C130.317 61.5287 132.317 59.5287 144.641 46.7704C154.664 36.1576 163.255 26.7867 163.645 25.9964C164.556 23.9641 161.693 21.0287 158.829 21.0287C157.658 21.0287 147.244 27.6899 135.92 35.8189C124.596 43.9479 112.881 51.6252 110.148 52.8672C103.64 55.8026 79.234 55.9155 73.1163 53.2059C70.6432 52.0768 59.1888 44.3995 47.474 36.1576C35.8894 27.8028 25.216 21.0287 23.9144 21.0287C22.6127 21.0287 20.7905 21.819 19.8793 22.7222Z" fill="white"/>
<path fill-rule="evenodd" clip-rule="evenodd" d="M68.8174 94.0287C74.3402 94.0287 78.8174 89.5515 78.8174 84.0287C78.8174 78.5058 74.3402 74.0287 68.8174 74.0287C63.2945 74.0287 58.8174 78.5058 58.8174 84.0287C58.8174 89.5515 63.2945 94.0287 68.8174 94.0287ZM68.8173 89.743C71.9732 89.743 74.5316 87.1846 74.5316 84.0287C74.5316 80.8728 71.9732 78.3144 68.8173 78.3144C65.6614 78.3144 63.103 80.8728 63.103 84.0287C63.103 87.1846 65.6614 89.743 68.8173 89.743Z" fill="white"/>
<path fill-rule="evenodd" clip-rule="evenodd" d="M115.817 94.0287C121.34 94.0287 125.817 89.5515 125.817 84.0287C125.817 78.5058 121.34 74.0287 115.817 74.0287C110.295 74.0287 105.817 78.5058 105.817 84.0287C105.817 89.5515 110.295 94.0287 115.817 94.0287ZM115.817 89.743C118.973 89.743 121.532 87.1846 121.532 84.0287C121.532 80.8728 118.973 78.3144 115.817 78.3144C112.661 78.3144 110.103 80.8728 110.103 84.0287C110.103 87.1846 112.661 89.743 115.817 89.743Z" fill="white"/>
</svg>
