<svg width="183" height="113" viewBox="0 0 183 113" fill="none" xmlns="http://www.w3.org/2000/svg">
<path d="M20.7506 1.02836C5.6839 4.62836 -3.9161 22.6284 1.55056 37.1617C3.6839 42.6284 10.0839 49.295 15.8172 51.8284C21.4172 54.495 31.8172 55.1617 35.0172 53.1617C38.0839 51.1617 30.2172 42.6284 25.4172 42.495C19.5506 42.3617 12.4839 34.6284 12.4839 28.3617C12.4839 18.895 17.9506 13.1617 27.0172 13.0284C31.8172 13.0284 33.5506 13.8284 37.2839 17.5617C39.8172 20.095 41.8172 23.295 41.8172 24.7617C41.8172 27.295 50.3506 35.695 52.7506 35.695C54.2172 35.695 54.0839 21.8284 52.4839 17.8284C50.0839 11.1617 41.8172 3.82836 34.7506 1.69503C27.4172 -0.438304 27.1506 -0.438305 20.7506 1.02836Z" fill="white"/>
<path d="M149.484 0.895023C134.951 4.49502 125.084 18.895 128.284 32.095L129.484 37.0284L134.284 33.1617C137.084 30.7617 139.617 27.1617 140.551 23.8284C142.684 16.7617 147.617 13.0284 154.951 13.0284C165.751 13.0284 172.817 23.295 168.684 33.1617C166.951 37.4284 160.551 42.3617 156.551 42.3617C154.017 42.3617 145.884 51.5617 146.951 53.295C147.351 53.8284 150.684 54.3617 154.417 54.3617C174.551 54.3617 187.751 34.2284 179.617 16.3617C174.551 5.02836 160.951 -1.90498 149.484 0.895023Z" fill="white"/>
<path d="M19.8793 22.7222C18.9682 23.6254 18.5777 24.9803 18.9682 25.7706C19.2285 26.5609 36.8006 45.3027 36.8006 45.3027C36.8006 45.3027 45.364 56.3673 48.8407 59.698C52.3174 63.0287 55.8174 66.0287 55.8174 66.0287C55.8174 66.0287 61.0712 68.0342 62.8174 68.5287C63.6863 68.7748 66.8174 69.7787 69.8174 70.5287C72.8174 71.2787 73.3174 71.0287 76.3174 72.5287C79.3174 74.0287 94.4984 85.5909 88.3155 89.6235C85.8423 92.7255 90.1703 114.75 92.9527 111.958C96.6624 108.546 99.7539 91.1745 96.9715 89.6235C91.3976 85.9881 102.317 76.0287 107.317 73.5287C112.317 71.0287 117.177 68.589 117.177 68.589C117.177 68.589 127.465 63.7946 128.891 62.6617C130.317 61.5287 132.317 59.5287 144.641 46.7704C154.664 36.1576 163.255 26.7867 163.645 25.9964C164.556 23.9641 161.693 21.0287 158.829 21.0287C157.658 21.0287 147.244 27.6899 135.92 35.8189C124.596 43.9479 112.881 51.6252 110.148 52.8672C103.64 55.8026 79.234 55.9155 73.1163 53.2059C70.6432 52.0768 59.1888 44.3995 47.474 36.1576C35.8894 27.8028 25.216 21.0287 23.9144 21.0287C22.6127 21.0287 20.7905 21.819 19.8793 22.7222Z" fill="white"/>
<path fill-rule="evenodd" clip-rule="evenodd" d="M68.8174 94.0287C74.3402 94.0287 78.8174 89.5515 78.8174 84.0287C78.8174 78.5058 74.3402 74.0287 68.8174 74.0287C63.2945 74.0287 58.8174 78.5058 58.8174 84.0287C58.8174 89.5515 63.2945 94.0287 68.8174 94.0287ZM68.8173 89.743C71.9732 89.743 74.5316 87.1846 74.5316 84.0287C74.5316 80.8728 71.9732 78.3144 68.8173 78.3144C65.6614 78.3144 63.103 80.8728 63.103 84.0287C63.103 87.1846 65.6614 89.743 68.8173 89.743Z" fill="white"/>
<path fill-rule="evenodd" clip-rule="evenodd" d="M115.817 94.0287C121.34 94.0287 125.817 89.5515 125.817 84.0287C125.817 78.5058 121.34 74.0287 115.817 74.0287C110.295 74.0287 105.817 78.5058 105.817 84.0287C105.817 89.5515 110.295 94.0287 115.817 94.0287ZM115.817 89.743C118.973 89.743 121.532 87.1846 121.532 84.0287C121.532 80.8728 118.973 78.3144 115.817 78.3144C112.661 78.3144 110.103 80.8728 110.103 84.0287C110.103 87.1846 112.661 89.743 115.817 89.743Z" fill="white"/>
</svg>
